<?xml version="1.0" encoding="UTF-8"?>
<svg id="Layer_1" data-name="Layer 1" xmlns="http://www.w3.org/2000/svg" xmlns:xlink="http://www.w3.org/1999/xlink" viewBox="0 0 1364.25 1486.01">
  <defs>
    <style>
      .cls-1 {
        fill: url(#linear-gradient-2);
      }

      .cls-2 {
        fill: #cd6799;
      }

      .cls-3 {
        fill: #fff;
      }

      .cls-4 {
        font-size: 63.22px;
      }

      .cls-4, .cls-5, .cls-6, .cls-7, .cls-8, .cls-9, .cls-10, .cls-11, .cls-12, .cls-13 {
        font-family: MyriadPro-Regular, 'Myriad Pro';
      }

      .cls-14 {
        letter-spacing: 0em;
      }

      .cls-15 {
        letter-spacing: 0em;
      }

      .cls-5 {
        font-size: 41.8px;
      }

      .cls-16 {
        letter-spacing: 0em;
      }

      .cls-17 {
        letter-spacing: 0em;
      }

      .cls-6 {
        fill: #00f244;
      }

      .cls-6, .cls-7, .cls-11 {
        font-size: 120px;
      }

      .cls-18 {
        fill: url(#linear-gradient-6);
      }

      .cls-7 {
        fill: #00bdff;
      }

      .cls-19 {
        letter-spacing: 0em;
      }

      .cls-20 {
        fill: #fa0c00;
      }

      .cls-21 {
        letter-spacing: 0em;
      }

      .cls-8 {
        font-size: 53.66px;
      }

      .cls-22 {
        letter-spacing: 0em;
      }

      .cls-23 {
        letter-spacing: 0em;
      }

      .cls-24 {
        letter-spacing: 0em;
      }

      .cls-9 {
        font-size: 50.17px;
      }

      .cls-25 {
        fill: #2d3748;
      }

      .cls-26 {
        fill: #00b0ff;
      }

      .cls-27 {
        letter-spacing: .01em;
      }

      .cls-28 {
        letter-spacing: 0em;
      }

      .cls-29 {
        letter-spacing: 0em;
      }

      .cls-30 {
        fill: url(#radial-gradient);
      }

      .cls-30, .cls-31, .cls-32 {
        stroke: #000;
        stroke-miterlimit: 10;
      }

      .cls-33 {
        letter-spacing: 0em;
      }

      .cls-34 {
        letter-spacing: 0em;
      }

      .cls-35 {
        letter-spacing: 0em;
      }

      .cls-36 {
        fill: #339af0;
      }

      .cls-31 {
        fill: url(#radial-gradient-3);
      }

      .cls-37 {
        fill: url(#linear-gradient-7);
        stroke: #fff;
      }

      .cls-38 {
        fill: url(#linear-gradient-5);
      }

      .cls-10 {
        font-size: 54.27px;
      }

      .cls-39 {
        clip-path: url(#clippath);
      }

      .cls-40 {
        fill: #5a0ef8;
      }

      .cls-41 {
        fill: none;
      }

      .cls-42 {
        fill: #07b6d5;
      }

      .cls-11 {
        fill: red;
      }

      .cls-43 {
        fill: url(#linear-gradient-3);
      }

      .cls-12 {
        font-size: 63.12px;
      }

      .cls-44 {
        letter-spacing: .01em;
      }

      .cls-45 {
        fill: url(#linear-gradient);
      }

      .cls-46 {
        letter-spacing: 0em;
      }

      .cls-47 {
        letter-spacing: -.05em;
      }

      .cls-48 {
        fill: #0081cb;
      }

      .cls-49 {
        letter-spacing: 0em;
      }

      .cls-13 {
        font-size: 43.58px;
      }

      .cls-50 {
        fill: url(#linear-gradient-4);
      }

      .cls-51 {
        fill: #0fb0db;
        letter-spacing: 0em;
      }

      .cls-32 {
        fill: url(#radial-gradient-2);
      }

      .cls-52 {
        fill: url(#linear-gradient-8);
      }

      .cls-53 {
        letter-spacing: 0em;
      }

      .cls-54 {
        fill-rule: evenodd;
      }
    </style>
    <radialGradient id="radial-gradient" cx="747.25" cy="572.11" fx="747.25" fy="572.11" r="413.5" gradientUnits="userSpaceOnUse">
      <stop offset="1" stop-color="#2aff5b" stop-opacity=".05"/>
      <stop offset="1" stop-color="#ff7bac" stop-opacity=".05"/>
    </radialGradient>
    <radialGradient id="radial-gradient-2" cx="950.25" cy="929.36" fx="950.25" fy="929.36" r="413.5" gradientUnits="userSpaceOnUse">
      <stop offset="1" stop-color="#e8ff3f" stop-opacity=".05"/>
      <stop offset="1" stop-color="#ff7bac" stop-opacity=".05"/>
    </radialGradient>
    <radialGradient id="radial-gradient-3" cx="537.25" cy="929.86" fx="537.25" fy="929.86" r="413.5" gradientUnits="userSpaceOnUse">
      <stop offset="1" stop-color="red" stop-opacity=".05"/>
      <stop offset="1" stop-color="#ff7bac" stop-opacity=".05"/>
    </radialGradient>
    <linearGradient id="linear-gradient" x1="-207.93" y1="1285.25" x2="-207.88" y2="1284.99" gradientTransform="translate(35578.39 153303.12) scale(166.3 -118.46)" gradientUnits="userSpaceOnUse">
      <stop offset="0" stop-color="#66e3ff"/>
      <stop offset="1" stop-color="#7064f9"/>
    </linearGradient>
    <linearGradient id="linear-gradient-2" x1="-210.25" y1="1288.75" x2="-210.21" y2="1288.52" gradientTransform="translate(54823.75 330960.72) scale(256 -256)" xlink:href="#linear-gradient"/>
    <clipPath id="clippath">
      <rect class="cls-41" x="442.52" y="614.99" width="82.37" height="44.72"/>
    </clipPath>
    <linearGradient id="linear-gradient-3" x1="-194.64" y1="1280.3" x2="-194.64" y2="1278.67" gradientTransform="translate(6779.25 41290.23) scale(32.2 -31.78)" gradientUnits="userSpaceOnUse">
      <stop offset="0" stop-color="#c8861c"/>
      <stop offset=".32" stop-color="#e6a345"/>
      <stop offset="1" stop-color="#f6db9b"/>
    </linearGradient>
    <linearGradient id="linear-gradient-4" x1="-194.18" y1="1280.3" x2="-194.18" y2="1278.67" gradientTransform="translate(6707.42 41290.23) scale(32.2 -31.78)" gradientUnits="userSpaceOnUse">
      <stop offset="0" stop-color="#c78a28"/>
      <stop offset=".32" stop-color="#e6a345"/>
      <stop offset="1" stop-color="#f6db9b"/>
    </linearGradient>
    <linearGradient id="linear-gradient-5" x1="-205.69" y1="1285.16" x2="-205.21" y2="1284.01" gradientTransform="translate(15113.68 72765.78) scale(71.22 -56.16)" gradientUnits="userSpaceOnUse">
      <stop offset="0" stop-color="#fcdd98"/>
      <stop offset=".23" stop-color="#fada94"/>
      <stop offset=".41" stop-color="#f6d48b"/>
      <stop offset=".56" stop-color="#efc87b"/>
      <stop offset=".71" stop-color="#e6b864"/>
      <stop offset=".85" stop-color="#d9a346"/>
      <stop offset=".97" stop-color="#c98922"/>
      <stop offset="1" stop-color="#e6a345"/>
    </linearGradient>
    <linearGradient id="linear-gradient-6" x1="139.87" y1="629.22" x2="202.87" y2="579.21" gradientTransform="translate(0 1503.97) scale(1 -1)" gradientUnits="userSpaceOnUse">
      <stop offset="0" stop-color="#9013fe"/>
      <stop offset="1" stop-color="#6610f2"/>
    </linearGradient>
    <linearGradient id="linear-gradient-7" x1="159.25" y1="619.28" x2="173.33" y2="595.46" gradientTransform="translate(0 1503.97) scale(1 -1)" gradientUnits="userSpaceOnUse">
      <stop offset="0" stop-color="#fff"/>
      <stop offset="1" stop-color="#f1e5fc"/>
    </linearGradient>
    <linearGradient id="linear-gradient-8" x1="738.15" y1="779.4" x2="738.15" y2="694.02" gradientTransform="translate(0 1503.97) scale(1 -1)" gradientUnits="userSpaceOnUse">
      <stop offset="0" stop-color="#7bcbd4"/>
      <stop offset="1" stop-color="#29c6b7"/>
    </linearGradient>
  </defs>
  <text class="cls-6" transform="translate(277.99 100.44)"><tspan x="0" y="0" xml:space="preserve"> E</tspan><tspan class="cls-27" x="84.48" y="0">x</tspan><tspan class="cls-19" x="141.6" y="0">t</tspan><tspan class="cls-46" x="180.6" y="0">ensions of CSS</tspan></text>
  <text class="cls-7" transform="translate(889.36 1455.61)"><tspan x="0" y="0"> </tspan><tspan class="cls-14" x="25.44" y="0">B</tspan><tspan x="90.96" y="0">eh</tspan><tspan class="cls-24" x="217.68" y="0">a</tspan><tspan class="cls-28" x="274.56" y="0">vior</tspan></text>
  <text class="cls-11" transform="translate(0 1456.01)"><tspan class="cls-17" x="0" y="0">S</tspan><tspan class="cls-34" x="58.8" y="0">t</tspan><tspan class="cls-49" x="99.6" y="0">yle s</tspan><tspan class="cls-19" x="317.51" y="0">y</tspan><tspan x="373.31" y="0">s</tspan><tspan class="cls-23" x="420.83" y="0">t</tspan><tspan x="459.83" y="0">ems</tspan></text>
  <g>
    <circle class="cls-30" cx="747.25" cy="572.11" r="413.5"/>
    <circle class="cls-32" cx="950.25" cy="929.36" r="413.5"/>
    <circle class="cls-31" cx="537.25" cy="929.86" r="413.5"/>
  </g>
  <g>
    <g>
      <path class="cls-42" d="M600.7,228.94c-17.56,.56-22.78,13.1-23.98,19.9,1.56-2.52,6.47-8.05,13.7-8.05,8.43,0,14.84,9.41,18.76,12.34,4.76,3.57,14.31,8.28,26.86,4.46,10.01-3.05,14.65-13.67,15.66-18.71-4.84,6.58-12.18,10.53-21.26,5.87-6.25-3.21-10.93-16.42-29.74-15.82Z"/>
      <path class="cls-42" d="M575.85,258.8c-17.56,.56-22.78,13.1-23.98,19.9,1.56-2.52,6.47-8.05,13.7-8.05,8.43,0,14.84,9.41,18.76,12.34,4.76,3.57,14.31,8.28,26.86,4.46,10.01-3.05,14.65-13.67,15.66-18.71-4.84,6.58-12.18,10.53-21.26,5.87-6.25-3.21-10.93-16.42-29.74-15.82Z"/>
    </g>
    <text class="cls-8" transform="translate(660.55 277.65)"><tspan x="0" y="0">tailwindcss</tspan></text>
  </g>
  <g>
    <g>
      <path class="cls-42" d="M188.54,988.79c-14.27,.45-18.51,10.64-19.48,16.17,1.27-2.05,5.26-6.54,11.13-6.54,6.85,0,12.06,7.64,15.24,10.03,3.86,2.9,11.63,6.72,21.82,3.62,8.13-2.47,11.9-11.1,12.72-15.19-3.93,5.34-9.89,8.55-17.27,4.77-5.08-2.61-8.88-13.34-24.16-12.85Z"/>
      <path class="cls-42" d="M168.35,1013.04c-14.27,.45-18.51,10.64-19.48,16.17,1.27-2.05,5.26-6.54,11.13-6.54,6.85,0,12.06,7.64,15.24,10.03,3.86,2.9,11.63,6.72,21.82,3.62,8.13-2.47,11.9-11.1,12.72-15.19-3.93,5.34-9.89,8.55-17.27,4.77-5.08-2.61-8.88-13.34-24.16-12.85Z"/>
    </g>
    <text class="cls-13" transform="translate(237.15 1028.35)"><tspan x="0" y="0">tailwindcss </tspan><tspan class="cls-51" x="210.24" y="0">UI</tspan></text>
  </g>
  <path class="cls-2" d="M810.63,412.47c-6.51,.03-12.17,1.6-16.91,3.92-1.74-3.44-3.48-6.51-3.78-8.76-.34-2.63-.75-4.23-.34-7.37,.41-3.14,2.25-7.6,2.22-7.94s-.41-1.94-4.16-1.98-6.99,.72-7.37,1.7-1.09,3.24-1.57,5.56c-.65,3.41-7.5,15.58-11.42,21.96-1.26-2.49-2.35-4.67-2.59-6.41-.34-2.63-.75-4.23-.34-7.37,.41-3.14,2.25-7.6,2.22-7.94s-.41-1.94-4.16-1.98c-3.75-.03-6.99,.72-7.37,1.7s-.78,3.31-1.57,5.56c-.78,2.25-9.89,22.57-12.28,27.82-1.23,2.69-2.28,4.84-3.03,6.31h0s-.03,.1-.14,.27c-.65,1.26-1.02,1.94-1.02,1.94v.03c-.51,.92-1.06,1.77-1.33,1.77-.2,0-.58-2.46,.07-5.8,1.36-7.06,4.6-18.04,4.57-18.41,0-.2,.61-2.11-2.11-3.1-2.66-.99-3.61,.65-3.85,.65s-.41,.58-.41,.58c0,0,2.97-12.34-5.66-12.34-5.39,0-12.82,5.9-16.5,11.22-2.32,1.26-7.26,3.96-12.55,6.85-2.01,1.13-4.09,2.25-6.04,3.31-.14-.14-.27-.31-.41-.44-10.43-11.15-29.73-19.03-28.92-34,.31-5.46,2.18-19.78,37.06-37.17,28.71-14.15,51.56-10.23,55.51-1.53,5.66,12.41-12.24,35.46-41.91,38.8-11.32,1.26-17.25-3.1-18.75-4.74-1.57-1.7-1.81-1.81-2.39-1.47-.95,.51-.34,2.05,0,2.93,.89,2.32,4.54,6.41,10.71,8.42,5.46,1.77,18.72,2.76,34.78-3.44,17.97-6.96,32.02-26.29,27.89-42.49-4.13-16.44-31.4-21.86-57.22-12.68-15.34,5.46-31.98,14.05-43.95,25.23-14.22,13.3-16.47,24.86-15.55,29.7,3.31,17.19,27.01,28.37,36.48,36.66-.48,.27-.92,.51-1.3,.72-4.74,2.35-22.81,11.8-27.31,21.79-5.11,11.32,.82,19.44,4.74,20.53,12.17,3.38,24.69-2.69,31.4-12.72,6.72-10.02,5.9-23.05,2.8-29.02-.03-.07-.07-.14-.14-.2,1.23-.72,2.49-1.47,3.72-2.18,2.42-1.43,4.81-2.76,6.85-3.85-1.16,3.17-2.01,6.96-2.42,12.41-.51,6.41,2.11,14.73,5.56,18,1.53,1.43,3.34,1.47,4.5,1.47,4.02,0,5.83-3.34,7.84-7.3,2.46-4.84,4.67-10.47,4.67-10.47,0,0-2.76,15.21,4.74,15.21,2.73,0,5.49-3.55,6.72-5.35v.03s.07-.1,.2-.34c.27-.44,.44-.72,.44-.72v-.07c1.09-1.91,3.55-6.24,7.19-13.43,4.71-9.27,9.24-20.87,9.24-20.87,0,0,.41,2.83,1.81,7.54,.82,2.76,2.52,5.8,3.89,8.73-1.09,1.53-1.77,2.39-1.77,2.39l.03,.03c-.89,1.16-1.84,2.42-2.9,3.65-3.72,4.43-8.15,9.51-8.76,10.98-.72,1.74-.55,3,.82,4.02,.99,.75,2.76,.85,4.57,.75,3.34-.24,5.69-1.06,6.85-1.57,1.81-.65,3.92-1.64,5.9-3.1,3.65-2.69,5.86-6.55,5.66-11.63-.1-2.8-1.02-5.59-2.15-8.22,.34-.48,.65-.95,.99-1.43,5.76-8.42,10.23-17.66,10.23-17.66,0,0,.41,2.83,1.81,7.54,.68,2.39,2.08,4.98,3.31,7.5-5.42,4.4-8.76,9.51-9.96,12.85-2.15,6.21-.48,9,2.69,9.65,1.43,.31,3.48-.38,4.98-1.02,1.91-.61,4.16-1.67,6.31-3.24,3.65-2.69,7.16-6.44,6.96-11.53-.1-2.32-.72-4.6-1.57-6.82,4.6-1.91,10.54-2.97,18.11-2.08,16.23,1.91,19.44,12.04,18.82,16.3s-4.02,6.58-5.15,7.3-1.5,.95-1.4,1.47c.14,.75,.68,.72,1.64,.58,1.33-.24,8.52-3.44,8.83-11.29,.51-10.02-9.04-20.97-25.91-20.87Zm-125.21,42.21c-5.39,5.86-12.89,8.08-16.13,6.21-3.48-2.01-2.11-10.67,4.5-16.88,4.02-3.78,9.21-7.3,12.65-9.45,.78-.48,1.94-1.16,3.34-2.01,.24-.14,.38-.2,.38-.2h0c.27-.17,.55-.34,.82-.51,2.42,8.87,.1,16.67-5.56,22.85Zm39.21-26.66c-1.88,4.57-5.8,16.26-8.18,15.62-2.05-.55-3.31-9.41-.41-18.17,1.47-4.4,4.57-9.65,6.38-11.7,2.93-3.27,6.17-4.36,6.96-3.03,.99,1.74-3.58,14.42-4.74,17.29Zm32.36,15.48c-.78,.41-1.53,.68-1.88,.48-.24-.14,.34-.68,.34-.68,0,0,4.06-4.36,5.66-6.34,.92-1.16,2.01-2.52,3.17-4.06v.44c0,5.22-5.05,8.73-7.3,10.16Zm24.96-5.69c-.58-.41-.48-1.77,1.47-6.04,.75-1.67,2.52-4.47,5.56-7.16,.34,1.09,.58,2.15,.55,3.14-.03,6.58-4.74,9.04-7.57,10.06Z"/>
  <g>
    <g>
      <path d="M1081.3,989.22c-13.23,0-23.95-10.72-23.95-23.95s10.72-23.95,23.95-23.95v47.9Z"/>
      <path d="M1081.3,914.37h-23.95v23.95h23.95v-23.95Z"/>
      <path d="M1096.27,938.32c6.61,0,11.98-5.36,11.98-11.98s-5.36-11.98-11.98-11.98-11.98,5.36-11.98,11.98,5.36,11.98,11.98,11.98Z"/>
    </g>
    <g>
      <path d="M1187.14,976.83h7.63c-.55-2.9-.84-5.66-.84-8.98v-13.86c0-9.34-5.33-13.93-14.9-13.93-8.66,0-14.56,4.53-15.32,12.24h8.53c.28-3.32,2.63-5.52,6.52-5.52s6.65,2.12,6.65,6.51v1.7l-10.54,1.2c-7.14,.85-12.68,3.82-12.68,11.03,0,6.51,4.99,10.4,11.85,10.4,5.61,0,10.35-2.33,12.31-6.44,.09,2.46,.78,5.66,.78,5.66Zm-10.67-5.52c-3.54,0-5.48-1.77-5.48-4.6,0-3.75,2.84-4.6,6.59-5.09l7.83-.92v2.19c0,5.66-4.37,8.42-8.94,8.42Zm47.67,5.52h8.73v-50.92h-8.87v20.85c-1.66-3.61-5.68-6.72-11.16-6.72-9.52,0-16.13,7.71-16.13,18.81s6.61,18.81,16.13,18.81c5.34,0,9.57-2.97,11.3-6.58v5.73Zm.07-17.33c0,7-3.26,11.53-8.87,11.53s-9.38-4.74-9.38-12.17,3.63-12.17,9.38-12.17,8.87,4.53,8.87,11.53v1.27Zm13.85-24.69h9.43v-8.84h-9.43v8.84Zm.28,42.01h8.87v-35.93h-8.87v35.93Zm19.95,0l8.8-12.31,8.73,12.31h10.19l-13.66-18.81,12.55-17.12h-9.5l-7.83,11.1-7.76-11.1h-10.19l12.69,17.54-13.52,18.39h9.5Z"/>
      <path class="cls-54" d="M1130.28,976.81v-17.91h11.63l10.94,17.91h9.73l-12.01-19.26c5.43-1.74,10.2-6.17,10.2-13.62,0-9.8-6.87-15.03-18.38-15.03h-20.83v47.9h8.72Zm0-40.86v15.97h11.7c6.64,0,10-2.75,10-7.98s-3.65-7.98-10.6-7.98h-11.1Z"/>
    </g>
  </g>
  <g>
    <path d="M1067.01,1055.64c-3.61,0-6.48,1.33-8.23,4.09v-14.03h-5.74v37.19h5.74v-14.24c0-5.42,2.97-7.65,6.74-7.65s5.95,2.12,5.95,6.16v15.72h5.73v-16.31c0-6.91-4.25-10.94-10.2-10.94Zm19.56,16.41h21.14c.11-.74,.21-1.59,.21-2.39,0-7.65-5.42-14.02-13.33-14.02-8.34,0-14.02,6.11-14.02,13.97s5.68,13.97,14.44,13.97c5.2,0,9.19-2.18,11.63-5.79l-4.73-2.76c-1.27,1.86-3.66,3.29-6.85,3.29-4.25,0-7.59-2.13-8.5-6.27Zm-.05-4.68c.8-3.98,3.72-6.53,8.02-6.53,3.45,0,6.8,1.97,7.59,6.53h-15.61Zm46-11.05v3.77c-2.02-2.76-5.15-4.46-9.29-4.46-7.22,0-13.22,6.06-13.22,13.97s6,13.97,13.22,13.97c4.14,0,7.28-1.7,9.29-4.51v3.82h5.74v-26.56h-5.74Zm-8.39,21.78c-4.78,0-8.39-3.56-8.39-8.5s3.61-8.5,8.39-8.5,8.39,3.56,8.39,8.5-3.61,8.5-8.39,8.5h0Zm40.52-32.41v14.4c-2.02-2.76-5.15-4.46-9.29-4.46-7.22,0-13.22,6.06-13.22,13.97s6,13.97,13.22,13.97c4.14,0,7.28-1.7,9.29-4.51v3.82h5.74v-37.19h-5.74Zm-8.39,32.41c-4.78,0-8.39-3.56-8.39-8.5s3.61-8.5,8.39-8.5,8.39,3.56,8.39,8.5-3.61,8.5-8.39,8.5h0Zm19.48,4.78h5.74v-38.78h-5.74s0,38.78,0,38.78Zm15.58-10.84h21.14c.11-.74,.21-1.59,.21-2.39,0-7.65-5.42-14.02-13.33-14.02-8.34,0-14.02,6.11-14.02,13.97s5.68,13.97,14.44,13.97c5.2,0,9.19-2.18,11.63-5.79l-4.73-2.76c-1.27,1.86-3.66,3.29-6.85,3.29-4.25,0-7.59-2.13-8.5-6.27Zm-.05-4.68c.8-3.98,3.72-6.53,8.02-6.53,3.45,0,6.8,1.97,7.59,6.53,0,0-15.61,0-15.61,0Zm29.24-3.72c0-1.91,1.81-2.81,3.88-2.81,2.18,0,4.04,.96,4.99,3.03l4.83-2.71c-1.86-3.51-5.47-5.52-9.83-5.52-5.42,0-9.72,3.13-9.72,8.13,0,9.51,14.29,6.85,14.29,11.58,0,2.13-1.97,2.98-4.51,2.98-2.92,0-5.04-1.43-5.89-3.82l-4.94,2.87c1.7,3.82,5.52,6.22,10.83,6.22,5.74,0,10.36-2.87,10.36-8.18,0-9.83-14.29-6.91-14.29-11.74Zm21.54,0c0-1.91,1.81-2.81,3.88-2.81,2.18,0,4.04,.96,4.99,3.03l4.83-2.71c-1.86-3.51-5.47-5.52-9.82-5.52-5.42,0-9.72,3.13-9.72,8.13,0,9.51,14.29,6.85,14.29,11.58,0,2.13-1.97,2.98-4.51,2.98-2.92,0-5.05-1.43-5.9-3.82l-4.94,2.87c1.7,3.82,5.52,6.22,10.83,6.22,5.74,0,10.36-2.87,10.36-8.18,0-9.83-14.29-6.91-14.29-11.74h0Zm43.75,13.1c3.98,0,6.93-2.38,6.93-6.28v-12.17h-3.57v11.89c0,1.76-.93,3.08-3.36,3.08s-3.36-1.32-3.36-3.08v-11.89h-3.54v12.17c0,3.9,2.95,6.28,6.9,6.28h0Zm10.65-18.46v18.09h3.57v-18.09s-3.57,0-3.57,0Zm-320,36.62,0,0,0,0,0,0"/>
    <g>
      <path id="Path" class="cls-45" d="M987.29,1076.73l36.24-12.1c-.72-4.53-1.24-7.55-1.84-9.86-.64-2.48-1.15-3.15-1.36-3.38-.7-.8-1.57-1.43-2.55-1.85-.28-.12-1.07-.4-3.63-.25-2.71,.16-6.26,.72-11.89,1.61-5.63,.89-9.18,1.46-11.8,2.14-2.48,.64-3.15,1.16-3.38,1.36-.8,.7-1.43,1.57-1.85,2.54-.12,.28-.4,1.07-.25,3.63,.16,2.71,.72,6.26,1.61,11.89,.25,1.58,.47,2.99,.68,4.26h0Z"/>
      <path id="Shape" class="cls-1" d="M977.3,1073.95c-1.72-10.88-2.59-16.33-.72-20.69,.97-2.28,2.45-4.31,4.31-5.94,3.58-3.12,9.02-3.98,19.9-5.71,10.89-1.73,16.33-2.59,20.7-.72,2.28,.97,4.31,2.45,5.94,4.31,3.13,3.58,3.99,9.02,5.71,19.91,1.72,10.88,2.59,16.33,.72,20.69-.97,2.28-2.45,4.31-4.31,5.94-3.58,3.13-9.02,3.99-19.91,5.71-10.88,1.72-16.33,2.59-20.69,.72-2.28-.97-4.31-2.45-5.94-4.31-3.13-3.58-3.99-9.02-5.71-19.91h0Zm19.2,19.33c2.91-.18,6.67-.76,12.22-1.64,5.56-.88,9.31-1.48,12.14-2.21,2.74-.71,4-1.4,4.82-2.12,1.2-1.05,2.15-2.35,2.77-3.82,.43-.99,.7-2.41,.53-5.23-.18-2.91-.76-6.67-1.64-12.23s-1.48-9.31-2.21-12.13c-.71-2.74-1.41-4-2.12-4.82-1.05-1.2-2.35-2.15-3.82-2.77-1-.43-2.41-.7-5.24-.53-2.91,.18-6.67,.76-12.22,1.64-5.56,.88-9.31,1.48-12.13,2.21-2.74,.71-4,1.41-4.82,2.12-1.2,1.05-2.15,2.35-2.77,3.82-.43,.99-.69,2.41-.52,5.23,.18,2.92,.76,6.67,1.64,12.23,.88,5.56,1.48,9.31,2.21,12.13,.71,2.74,1.4,4,2.12,4.82,1.05,1.2,2.35,2.15,3.82,2.77,1,.43,2.41,.7,5.24,.53h0Z"/>
    </g>
  </g>
  <g>
    <g>
      <path class="cls-20" d="M938.53,1160.11h-21.85v52.26l21.85-52.26Z"/>
      <path class="cls-20" d="M953.91,1160.11h21.83v52.26l-21.83-52.26Z"/>
      <path class="cls-20" d="M946.22,1179.38l13.91,33h-9.13l-4.16-10.51h-10.18l9.55-22.49Z"/>
    </g>
    <text class="cls-10" transform="translate(984.87 1206.9)"><tspan class="cls-35" x="0" y="0">R</tspan><tspan x="29.42" y="0">ea</tspan><tspan class="cls-44" x="82.77" y="0">c</tspan><tspan x="107.79" y="0">t </tspan><tspan class="cls-15" x="137.26" y="0">A</tspan><tspan class="cls-35" x="170.31" y="0">r</tspan><tspan x="188.27" y="0">ia</tspan></text>
  </g>
  <g>
    <g class="cls-39">
      <g id="logo">
        <g id="Group_23" data-name="Group 23">
          <path id="Path_1" data-name="Path 1" class="cls-43" d="M515.23,638.87c-2.16-3.81-3.97-4.38-5.73-4.38-2.59,0-4.4,2.4-5.55,4.53l-4.6,9.45,1.25,2.06c4.4,8.36,14.72,11.6,23.1,7.25l1.2-.62-9.66-18.28Z"/>
          <path id="Path_2" data-name="Path 2" class="cls-50" d="M452.18,638.87c2.16-3.81,3.97-4.38,5.74-4.38,2.59,0,4.4,2.4,5.55,4.53l4.6,9.45-1.25,2.06c-4.4,8.36-14.72,11.6-23.1,7.25l-1.2-.62,9.66-18.28Z"/>
          <path id="Path_3" data-name="Path 3" class="cls-38" d="M505.51,620.13c-3.36-6.77-13.43-6.92-16.84-.1l-4.96,9.5-4.96-9.5c-3.41-6.82-13.49-6.67-16.84,.1l-6.45,12.49c3.06-3.48,7.36-1.43,9.23,2.11l6.96,12.81,3.56,6.81c.89,1.77,2.3,3.21,4.05,4.13,2.8,1.42,6.11,1.42,8.9,0,1.75-.92,3.17-2.36,4.05-4.13l3.56-6.81,6.96-12.81c1.87-3.54,6.17-5.59,9.23-2.11l-6.45-12.49Z"/>
        </g>
      </g>
    </g>
    <text class="cls-9" transform="translate(382.34 699.76)"><tspan x="0" y="0">mas</tspan><tspan class="cls-16" x="85.89" y="0">t</tspan><tspan x="102.2" y="0">e</tspan><tspan class="cls-47" x="127.33" y="0">r</tspan><tspan x="141.08" y="0">.</tspan><tspan class="cls-16" x="151.46" y="0">c</tspan><tspan x="173.64" y="0">o</tspan></text>
  </g>
  <g>
    <g>
      <path class="cls-36" d="M711.73,1145.34c0-18.42-14.85-33.35-33.18-33.35s-33.18,14.93-33.18,33.35,14.85,33.35,33.18,33.35,33.18-14.93,33.18-33.35Z"/>
      <path class="cls-3" d="M674.04,1128.61c.66-.1,1.34,.07,1.87,.47,1.1,.82,2.11,1.75,3.03,2.77l.23,.26h7.16c1.4,0,2.53,1.13,2.53,2.53s-1.08,2.48-2.43,2.53h-.09s-3.95,0-3.95,0c1.1,2.54,1.67,5.29,1.67,8.06,0,2.67-.52,5.32-1.55,7.78l-.12,.27h3.95c1.4,0,2.53,1.13,2.53,2.53s-1.08,2.48-2.43,2.53h-.09s-7.16,0-7.16,0c-.97,1.12-2.06,2.14-3.25,3.02-.54,.4-1.21,.57-1.88,.47-.66-.1-1.26-.46-1.66-1-.2-.27-.34-.57-.42-.89-.16-.65-.06-1.34,.28-1.92,.17-.28,.39-.53,.66-.73,3.86-2.88,6.08-7.28,6.08-12.08s-2.22-9.2-6.08-12.08c-.27-.2-.49-.45-.66-.73-.51-.85-.47-1.91,.07-2.73l.06-.09c.4-.54,1-.9,1.66-1Zm-.46,12.29c.46,.2,.88,.48,1.23,.84,.35,.36,.62,.79,.8,1.26,.18,.47,.27,.97,.26,1.48-.02,.99-.43,1.92-1.13,2.62-.7,.69-1.64,1.08-2.61,1.08-.98,0-1.92-.39-2.61-1.08-.7-.69-1.1-1.63-1.13-2.62-.01-.5,.08-1.01,.26-1.48,.18-.47,.46-.9,.8-1.26,.35-.36,.76-.65,1.23-.84,.93-.4,1.98-.4,2.91,0Z"/>
    </g>
    <text class="cls-5" transform="translate(714 1161.91)"><tspan class="cls-21" x="0" y="0">M</tspan><tspan x="33.86" y="0">a</tspan><tspan class="cls-22" x="54.01" y="0">n</tspan><tspan x="77.04" y="0">tine</tspan></text>
  </g>
  <g>
    <g>
      <path class="cls-26" d="M652,1072.69v-33.51l29.02,16.76v11.17l-19.35-11.17v22.34l-9.67-5.59Z"/>
      <path class="cls-48" d="M681.03,1055.93l29.02-16.76v33.51l-19.35,11.17-9.67-5.59,19.35-11.17v-11.17l-19.35,11.17v-11.17Z"/>
      <path class="cls-26" d="M681.03,1078.27v11.17l19.35,11.17v-11.17l-19.35-11.17Z"/>
      <path class="cls-48" d="M700.38,1100.61l29.02-16.76v-22.34l-9.67,5.59v11.17l-19.35,11.17v11.17Zm19.35-44.68v-11.17l9.67-5.59v11.17l-9.67,5.59Z"/>
    </g>
    <text class="cls-12" transform="translate(739.33 1090.82)"><tspan x="0" y="0">MUI</tspan></text>
  </g>
  <g>
    <g>
      <path class="cls-18" d="M140.57,876.39c-.14-3.91,2.91-7.51,7.02-7.51h42.15c4.11,0,7.16,3.6,7.02,7.51-.13,3.75,.04,8.61,1.26,12.58,1.23,3.98,3.3,6.49,6.69,6.81v3.66c-3.39,.32-5.46,2.84-6.69,6.81-1.22,3.96-1.39,8.82-1.26,12.58,.14,3.91-2.91,7.51-7.02,7.51h-42.15c-4.11,0-7.16-3.6-7.02-7.51,.13-3.75-.04-8.61-1.26-12.58-1.23-3.98-3.3-6.49-6.69-6.81v-3.66c3.39-.32,5.46-2.84,6.69-6.81,1.22-3.96,1.39-8.82,1.26-12.58Z"/>
      <path class="cls-37" d="M170.22,912.88c6.66,0,10.67-3.26,10.67-8.64,0-4.07-2.86-7.01-7.12-7.47v-.17c3.12-.51,5.58-3.41,5.58-6.65,0-4.62-3.64-7.62-9.2-7.62h-12.5v30.56h12.56Zm-7.7-26.68h6.46c3.51,0,5.51,1.57,5.51,4.4,0,3.03-2.32,4.72-6.53,4.72h-5.45v-9.13Zm0,22.81v-10.06h6.42c4.6,0,6.99,1.69,6.99,5s-2.32,5.06-6.7,5.06h-6.7Z"/>
    </g>
    <text class="cls-4" transform="translate(214.4 919.35)"><tspan class="cls-29" x="0" y="0">B</tspan><tspan x="34.52" y="0">ootst</tspan><tspan class="cls-33" x="170.81" y="0">r</tspan><tspan class="cls-53" x="191.16" y="0">ap</tspan></text>
  </g>
  <g>
    <g id="daisy">
      <path id="path-1" d="M259.9,1161.94c1,.05,1.97-.06,2.92-.33,.95-.27,1.83-.62,2.66-1.04s1.57-.87,2.24-1.34c.67-.47,1.23-.9,1.68-1.3,2.84-2.28,5.42-4.84,7.74-7.69,2.32-2.85,4.55-5.73,6.7-8.65h0v-.07l2.17-2.97c.3-.35,.3-.76,0-1.23-.3-.47-.7-.88-1.2-1.23-.5-.35-1.02-.58-1.57-.71-.55-.12-.92-.06-1.12,.19-.2,.35-.4,.67-.6,.97-.2,.3-.5,.64-.9,1.04-1.1,1.54-2.26,3.13-3.48,4.79-1.22,1.66-2.49,3.22-3.82,4.68-1.32,1.46-2.68,2.76-4.08,3.9s-2.84,1.96-4.34,2.45h-.75c.15-.1,.27-.37,.37-.82,.2-1.04,.59-2.28,1.16-3.71,.57-1.44,1.28-2.87,2.13-4.31h.15c1.9-3.86,3.89-7.48,5.98-10.84,2.09-3.37,4.19-6.61,6.28-9.73h0l-.07,.07,2.62-4.09c1.1-1.68,2.26-3.48,3.48-5.39,1.22-1.91,2.37-3.73,3.44-5.46,1.07-1.73,2.01-3.29,2.81-4.68s1.35-2.38,1.65-2.97c.55-1.09,.6-2.23,.15-3.42-.45-1.19-1.12-2.22-2.02-3.08-.9-.87-1.9-1.51-2.99-1.93-1.1-.42-2.02-.43-2.77-.04-.6,1.44-1.31,3.03-2.13,4.79-.82,1.76-1.75,3.59-2.77,5.5s-2.12,3.85-3.29,5.83c-1.17,1.98-2.38,3.89-3.63,5.72h0l-2.84,4.31-.67,.97c-.7-1.14-1.72-1.96-3.07-2.45-.7-.2-1.35-.35-1.94-.45s-1.22-.15-1.87-.15c-2.19,0-4.4,.47-6.62,1.41-2.22,.94-4.4,2.2-6.55,3.79-2.14,1.58-4.18,3.39-6.1,5.42-1.92,2.03-3.68,4.13-5.27,6.31-1.6,2.18-2.97,4.36-4.11,6.54-1.15,2.18-1.97,4.18-2.47,6.02-.25,.69-.47,1.58-.67,2.67-.15,1.19-.19,2.46-.11,3.83,.07,1.36,.39,2.64,.94,3.83s1.38,2.22,2.51,3.08c1.12,.87,2.63,1.4,4.53,1.6,2.09-.05,4.29-.83,6.58-2.34,2.29-1.51,4.56-3.31,6.81-5.39-.25,2.23,.11,4.09,1.08,5.57s2.66,2.33,5.05,2.53Zm-13.39-9.66c-.8,.2-1.42,.25-1.87,.15s-.79-.32-1.01-.67c-.22-.35-.34-.77-.34-1.26s.05-1.02,.15-1.56c.1-.79,.27-1.6,.52-2.41s.5-1.5,.75-2.04c.85-1.93,2.01-4.09,3.48-6.46s3.1-4.61,4.9-6.69c1.8-2.08,3.67-3.8,5.61-5.16,1.94-1.36,3.84-2.02,5.69-1.97,.85,.1,1.43,.42,1.76,.97,.32,.54,.54,1.19,.64,1.93-2.09,3.27-4.01,6.56-5.76,9.88h0l-1.27,2.53c-.9,1.14-1.96,2.41-3.18,3.83-1.22,1.41-2.46,2.75-3.7,4.01-1.25,1.26-2.44,2.35-3.59,3.27-1.15,.92-2.07,1.47-2.77,1.67Zm56.33,9.66c1,.05,1.97-.06,2.92-.33,.95-.27,1.83-.62,2.66-1.04,.82-.42,1.57-.87,2.24-1.34,.67-.47,1.23-.9,1.68-1.3,2.84-2.28,5.42-4.84,7.74-7.69,2.32-2.85,4.55-5.73,6.7-8.65h0v-.07l2.17-2.97c.3-.35,.3-.76,0-1.23-.3-.47-.7-.88-1.2-1.23-.5-.35-1.02-.58-1.57-.71-.55-.12-.92-.06-1.12,.19-.2,.35-.4,.67-.6,.97-.2,.3-.5,.64-.9,1.04-1.1,1.54-2.26,3.13-3.48,4.79-1.22,1.66-2.49,3.22-3.82,4.68-1.32,1.46-2.68,2.76-4.08,3.9-1.4,1.14-2.84,1.96-4.34,2.45h-.52s.11-.1,.19-.15c.07-.05,.11-.12,.11-.22,.1-.64,.34-1.42,.71-2.34,.37-.92,.81-1.89,1.31-2.93,.5-1.04,1.03-2.1,1.61-3.19s1.13-2.1,1.68-3.05c.25-.45,.5-.88,.75-1.3s.47-.8,.67-1.15c.3-.69,.39-1.41,.26-2.15-.12-.74-.39-1.47-.79-2.19-.4-.72-.9-1.37-1.5-1.97-.6-.59-1.25-1.11-1.94-1.56,.35,.15,.76,.22,1.23,.22s.94-.04,1.38-.11c.45-.07,.84-.2,1.16-.37,.32-.17,.51-.41,.56-.71,.3-1.29,.49-2.59,.56-3.9,.07-1.31,0-2.55-.22-3.71s-.65-2.18-1.27-3.05-1.53-1.5-2.73-1.89c-.7-.2-1.35-.35-1.94-.45-.6-.1-1.22-.15-1.87-.15-2.19,0-4.4,.47-6.62,1.41-2.22,.94-4.4,2.2-6.55,3.79-2.14,1.58-4.18,3.39-6.1,5.42-1.92,2.03-3.68,4.13-5.27,6.31-1.6,2.18-2.97,4.36-4.11,6.54-1.15,2.18-1.97,4.18-2.47,6.02-.25,.69-.47,1.58-.67,2.67-.15,1.19-.19,2.46-.11,3.83,.07,1.36,.39,2.64,.94,3.83,.55,1.19,1.38,2.22,2.51,3.08,1.12,.87,2.63,1.4,4.53,1.6,2.09-.05,4.29-.83,6.58-2.34,2.29-1.51,4.56-3.31,6.81-5.39-.25,2.23,.11,4.09,1.08,5.57,.97,1.49,2.66,2.33,5.05,2.53Zm-13.39-9.66c-.8,.2-1.42,.25-1.87,.15s-.79-.32-1.01-.67c-.22-.35-.34-.77-.34-1.26s.05-1.02,.15-1.56c.1-.79,.27-1.6,.52-2.41s.5-1.5,.75-2.04c.85-1.93,2.01-4.09,3.48-6.46s3.1-4.61,4.9-6.69c1.8-2.08,3.67-3.8,5.61-5.16,1.94-1.36,3.84-2.02,5.69-1.97,.6,.05,1.07,.22,1.42,.52,.35,.3,.6,.68,.75,1.15,.15,.47,.22,.98,.22,1.52s-.02,1.06-.07,1.56c-.05,.2-.06,.4-.04,.59,.02,.2,.01,.37-.04,.52-.1,.3-.02,.57,.22,.82-.7-.4-1.38-.67-2.06-.82-.67-.15-1.26-.1-1.76,.15h0l.15,1.19c-.25,.99-.69,2.19-1.31,3.6-.62,1.41-1.31,2.86-2.06,4.35-.85,1.14-1.88,2.43-3.1,3.86-1.22,1.44-2.47,2.79-3.74,4.05s-2.48,2.36-3.63,3.31c-1.15,.94-2.09,1.51-2.84,1.71Zm56.1-33.65c.7-1.58,1.41-2.97,2.13-4.16s1.43-2.35,2.13-3.49c.7-1.14,1.38-2.25,2.06-3.34,.67-1.09,1.28-2.35,1.83-3.79,.1-.45-.09-1.18-.56-2.19-.47-1.02-1.07-2.03-1.8-3.05-.72-1.02-1.5-1.91-2.32-2.67-.82-.77-1.53-1.1-2.13-1h0l-1.5,1.56c-.3,1.24-.7,2.53-1.2,3.86s-1.02,2.65-1.57,3.94c-.55,1.29-1.03,2.53-1.46,3.71-.42,1.19-.76,2.28-1.01,3.27-.1,.54,.01,1.21,.34,2.01,.32,.79,.76,1.56,1.31,2.3s1.16,1.4,1.83,1.97c.67,.57,1.31,.93,1.91,1.08Zm-25.13,43.3c.9,0,1.82-.14,2.77-.41,.95-.27,1.85-.61,2.69-1s1.63-.83,2.36-1.3c.72-.47,1.33-.88,1.83-1.23,3.14-2.53,6.26-5.45,9.35-8.76s5.88-6.59,8.38-9.8h0l-.07,.15c.3-.35,.35-.78,.15-1.3-.2-.52-.51-.99-.94-1.41-.42-.42-.89-.72-1.38-.89s-.9-.11-1.2,.19h0l-1.35,1.78c-1.25,1.49-2.54,3.03-3.89,4.64-1.35,1.61-2.73,3.13-4.15,4.57-1.42,1.44-2.9,2.71-4.45,3.83-1.55,1.11-3.12,1.92-4.71,2.41h-.52c-.3,0-.3-.36,0-1.08,.3-.72,.79-1.67,1.46-2.86,.67-1.19,1.5-2.55,2.47-4.09s1.99-3.11,3.07-4.72c1.07-1.61,2.14-3.19,3.22-4.75,1.07-1.56,2.06-2.98,2.95-4.27,.35-.54,.75-1.14,1.2-1.78,.45-.64,.85-1.21,1.2-1.71,.35-.5,.62-.89,.82-1.19,.2-.3,.25-.4,.15-.3,.65-1.14,.82-2.32,.52-3.53-.3-1.21-.82-2.28-1.57-3.19-.75-.92-1.62-1.61-2.62-2.08-1-.47-1.87-.53-2.62-.19h0l-.97,.89c-.85,1.73-1.88,3.65-3.1,5.76-1.22,2.1-2.48,4.27-3.78,6.5-1.99,3.27-3.93,6.54-5.8,9.8-1.87,3.27-3.3,6.14-4.3,8.62h0l.07-.07c-.75,1.68-1.3,3.37-1.65,5.05-.35,2.18-.19,4,.49,5.46,.67,1.46,1.98,2.22,3.93,2.27Zm23.86,.45c1.94,.1,3.8-.19,5.57-.85,1.77-.67,3.37-1.65,4.79-2.93,1.42-1.29,2.61-2.86,3.55-4.72,.95-1.86,1.57-3.9,1.87-6.13h0l.52-4.46c.1-1.09,.2-2.17,.3-3.23s.25-2.12,.45-3.16c.35-1.88,.86-3.79,1.53-5.72,.67-1.93,1.66-3.76,2.95-5.5h0l1.2-1.49c.5-.64,.96-1.2,1.38-1.67,.42-.47,1.13-1.13,2.13-1.97h0l-.22,.07c1.05-.74,1.52-1.58,1.42-2.53-.1-.94-.49-1.84-1.16-2.71-.67-.87-1.51-1.66-2.51-2.38-1-.72-1.85-1.28-2.54-1.67-2.49,2.03-4.43,3.81-5.8,5.35-1.37,1.54-2.58,2.97-3.63,4.31-.35,.4-.67,.79-.97,1.19s-.65,.79-1.05,1.19c-1.9,2.18-3.73,4.43-5.5,6.76-1.77,2.33-3.5,4.68-5.2,7.06h0l-2.09,2.67c-1.65,1.19-3.07,2.77-4.26,4.75s-1.99,4.01-2.39,6.09c-.25,1.49-.25,2.9,0,4.23,.25,1.34,.76,2.53,1.53,3.57,.77,1.04,1.83,1.91,3.18,2.6,1.35,.69,2.99,1.11,4.94,1.26Zm2.32-6.98c-.6,.35-1.27,.47-2.02,.37-.7-.1-1.4-.33-2.09-.71-.7-.37-1.22-.95-1.57-1.75-.1-.35-.17-.71-.22-1.08-.05-.37-.05-.68,0-.93,.15-.64,.52-1.28,1.12-1.89,.6-.62,1.27-1.1,2.02-1.45,.75-.35,1.47-.46,2.17-.33,.7,.12,1.2,.58,1.5,1.37,.5-.45,.86-1.15,1.08-2.12,.22-.97,.36-1.98,.41-3.05s.02-2.08-.07-3.05c-.1-.97-.2-1.65-.3-2.04h0l.07-.07,3.14-4.16c-.1,.4-.2,.8-.3,1.23s-.17,.83-.22,1.23c-.25,1.19-.41,2.35-.49,3.49-.07,1.14-.16,2.23-.26,3.27-.1,1.98-.25,3.86-.45,5.65-.15,.89-.39,1.73-.71,2.53-.32,.79-.72,1.49-1.2,2.08s-1.01,1.06-1.61,1.41Zm-.22,38.1c5.64,0,10.57-1.26,14.81-3.79s8.2-6.07,11.89-10.62h0l3.82,3.34,2.77,2.53c.3,.2,.79,.25,1.46,.15,.67-.1,1.42-.32,2.24-.67,.82-.35,1.65-.76,2.47-1.23,.82-.47,1.51-.98,2.06-1.52,.55-.54,.91-1.09,1.08-1.63,.17-.54,.01-1.02-.49-1.41-.2-.15-.37-.32-.52-.52-.15-.2-.3-.37-.45-.52h0v.15c-1.4-1.24-2.79-2.44-4.19-3.6-1.4-1.16-2.84-2.27-4.34-3.31,1.45-2.23,2.88-4.58,4.3-7.06s2.88-5.1,4.38-7.87h0l16.01-29.34c.5-1.14,.54-2.29,.11-3.45-.42-1.16-1.08-2.19-1.98-3.08-.9-.89-1.88-1.55-2.95-1.97-1.07-.42-1.98-.46-2.73-.11-1.45,3.32-2.9,6.52-4.38,9.62-1.47,3.09-2.9,6-4.3,8.73h0l-1.27,1.63h.07c-1.1,1.54-2.24,3.11-3.44,4.72-1.2,1.61-2.44,3.12-3.74,4.53s-2.64,2.67-4.04,3.79c-1.4,1.11-2.82,1.92-4.26,2.41h-.67s.1-.2,.3-.59c.15-1.04,.61-2.44,1.38-4.2,.77-1.76,1.68-3.63,2.73-5.61s2.16-3.97,3.33-5.98c1.17-2.01,2.26-3.83,3.25-5.46h0l-.07,.07c.7-1.14,1.3-2.15,1.8-3.05s.87-1.56,1.12-2.01c.5-1.14,.56-2.3,.19-3.49s-.97-2.25-1.8-3.19c-.82-.94-1.75-1.63-2.77-2.08-1.02-.45-1.91-.5-2.66-.15h0l-.9,1.04c-.65,1.54-1.52,3.45-2.62,5.76s-2.27,4.72-3.52,7.24c-.75,1.58-1.52,3.18-2.32,4.79-.8,1.61-1.57,3.17-2.32,4.68-.75,1.51-1.42,2.97-2.02,4.38-.6,1.41-1.1,2.66-1.5,3.75-.2,.54-.36,1.14-.49,1.78-.12,.64-.24,1.24-.34,1.78-.4,2.48-.24,4.58,.49,6.31s2.16,2.65,4.3,2.75c.95,0,1.9-.14,2.84-.41,.95-.27,1.85-.61,2.69-1,.85-.4,1.62-.83,2.32-1.3,.7-.47,1.27-.9,1.72-1.3h0l1.35-1.11c-.95,1.63-1.88,3.23-2.81,4.79-.92,1.56-1.86,3.13-2.81,4.72-.95-.4-1.88-.76-2.81-1.08-.92-.32-1.88-.59-2.88-.82-1-.22-2.11-.4-3.33-.52-1.22-.12-2.61-.19-4.15-.19-2.79,0-5.54,.46-8.23,1.37-2.69,.92-5.15,2.2-7.37,3.86-2.22,1.66-4.09,3.61-5.61,5.87-1.52,2.25-2.51,4.69-2.95,7.32-.35,2.08-.21,3.84,.41,5.27s1.55,2.6,2.77,3.49c1.22,.89,2.67,1.55,4.34,1.97,1.67,.42,3.4,.63,5.2,.63Zm-.22-5.94c-.85,0-1.72-.09-2.62-.26-.9-.17-1.7-.47-2.39-.89-.7-.42-1.25-.99-1.65-1.71-.4-.72-.5-1.65-.3-2.79,.2-1.63,.91-3.05,2.13-4.23,1.22-1.19,2.67-2.18,4.34-2.97s3.48-1.37,5.42-1.75c1.94-.37,3.74-.56,5.39-.56,3.39,.05,6.36,.64,8.9,1.78-1.5,1.98-3.03,3.79-4.6,5.42-1.57,1.63-3.15,3.05-4.75,4.23-1.6,1.19-3.22,2.1-4.86,2.75-1.65,.64-3.32,.97-5.01,.97Z"/>
      <path id="path-1-2" data-name="path-1" class="cls-25" d="M259.9,1161.94c1,.05,1.97-.06,2.92-.33,.95-.27,1.83-.62,2.66-1.04s1.57-.87,2.24-1.34c.67-.47,1.23-.9,1.68-1.3,2.84-2.28,5.42-4.84,7.74-7.69,2.32-2.85,4.55-5.73,6.7-8.65h0v-.07l2.17-2.97c.3-.35,.3-.76,0-1.23-.3-.47-.7-.88-1.2-1.23-.5-.35-1.02-.58-1.57-.71-.55-.12-.92-.06-1.12,.19-.2,.35-.4,.67-.6,.97-.2,.3-.5,.64-.9,1.04-1.1,1.54-2.26,3.13-3.48,4.79-1.22,1.66-2.49,3.22-3.82,4.68-1.32,1.46-2.68,2.76-4.08,3.9s-2.84,1.96-4.34,2.45h-.75c.15-.1,.27-.37,.37-.82,.2-1.04,.59-2.28,1.16-3.71,.57-1.44,1.28-2.87,2.13-4.31h.15c1.9-3.86,3.89-7.48,5.98-10.84,2.09-3.37,4.19-6.61,6.28-9.73h0l-.07,.07,2.62-4.09c1.1-1.68,2.26-3.48,3.48-5.39,1.22-1.91,2.37-3.73,3.44-5.46,1.07-1.73,2.01-3.29,2.81-4.68s1.35-2.38,1.65-2.97c.55-1.09,.6-2.23,.15-3.42-.45-1.19-1.12-2.22-2.02-3.08-.9-.87-1.9-1.51-2.99-1.93-1.1-.42-2.02-.43-2.77-.04-.6,1.44-1.31,3.03-2.13,4.79-.82,1.76-1.75,3.59-2.77,5.5s-2.12,3.85-3.29,5.83c-1.17,1.98-2.38,3.89-3.63,5.72h0l-2.84,4.31-.67,.97c-.7-1.14-1.72-1.96-3.07-2.45-.7-.2-1.35-.35-1.94-.45s-1.22-.15-1.87-.15c-2.19,0-4.4,.47-6.62,1.41-2.22,.94-4.4,2.2-6.55,3.79-2.14,1.58-4.18,3.39-6.1,5.42-1.92,2.03-3.68,4.13-5.27,6.31-1.6,2.18-2.97,4.36-4.11,6.54-1.15,2.18-1.97,4.18-2.47,6.02-.25,.69-.47,1.58-.67,2.67-.15,1.19-.19,2.46-.11,3.83,.07,1.36,.39,2.64,.94,3.83s1.38,2.22,2.51,3.08c1.12,.87,2.63,1.4,4.53,1.6,2.09-.05,4.29-.83,6.58-2.34,2.29-1.51,4.56-3.31,6.81-5.39-.25,2.23,.11,4.09,1.08,5.57s2.66,2.33,5.05,2.53Zm-13.39-9.66c-.8,.2-1.42,.25-1.87,.15s-.79-.32-1.01-.67c-.22-.35-.34-.77-.34-1.26s.05-1.02,.15-1.56c.1-.79,.27-1.6,.52-2.41s.5-1.5,.75-2.04c.85-1.93,2.01-4.09,3.48-6.46s3.1-4.61,4.9-6.69c1.8-2.08,3.67-3.8,5.61-5.16,1.94-1.36,3.84-2.02,5.69-1.97,.85,.1,1.43,.42,1.76,.97,.32,.54,.54,1.19,.64,1.93-2.09,3.27-4.01,6.56-5.76,9.88h0l-1.27,2.53c-.9,1.14-1.96,2.41-3.18,3.83-1.22,1.41-2.46,2.75-3.7,4.01-1.25,1.26-2.44,2.35-3.59,3.27-1.15,.92-2.07,1.47-2.77,1.67Zm56.33,9.66c1,.05,1.97-.06,2.92-.33,.95-.27,1.83-.62,2.66-1.04,.82-.42,1.57-.87,2.24-1.34,.67-.47,1.23-.9,1.68-1.3,2.84-2.28,5.42-4.84,7.74-7.69,2.32-2.85,4.55-5.73,6.7-8.65h0v-.07l2.17-2.97c.3-.35,.3-.76,0-1.23-.3-.47-.7-.88-1.2-1.23-.5-.35-1.02-.58-1.57-.71-.55-.12-.92-.06-1.12,.19-.2,.35-.4,.67-.6,.97-.2,.3-.5,.64-.9,1.04-1.1,1.54-2.26,3.13-3.48,4.79-1.22,1.66-2.49,3.22-3.82,4.68-1.32,1.46-2.68,2.76-4.08,3.9-1.4,1.14-2.84,1.96-4.34,2.45h-.52s.11-.1,.19-.15c.07-.05,.11-.12,.11-.22,.1-.64,.34-1.42,.71-2.34,.37-.92,.81-1.89,1.31-2.93,.5-1.04,1.03-2.1,1.61-3.19s1.13-2.1,1.68-3.05c.25-.45,.5-.88,.75-1.3s.47-.8,.67-1.15c.3-.69,.39-1.41,.26-2.15-.12-.74-.39-1.47-.79-2.19-.4-.72-.9-1.37-1.5-1.97-.6-.59-1.25-1.11-1.94-1.56,.35,.15,.76,.22,1.23,.22s.94-.04,1.38-.11c.45-.07,.84-.2,1.16-.37,.32-.17,.51-.41,.56-.71,.3-1.29,.49-2.59,.56-3.9,.07-1.31,0-2.55-.22-3.71s-.65-2.18-1.27-3.05-1.53-1.5-2.73-1.89c-.7-.2-1.35-.35-1.94-.45-.6-.1-1.22-.15-1.87-.15-2.19,0-4.4,.47-6.62,1.41-2.22,.94-4.4,2.2-6.55,3.79-2.14,1.58-4.18,3.39-6.1,5.42-1.92,2.03-3.68,4.13-5.27,6.31-1.6,2.18-2.97,4.36-4.11,6.54-1.15,2.18-1.97,4.18-2.47,6.02-.25,.69-.47,1.58-.67,2.67-.15,1.19-.19,2.46-.11,3.83,.07,1.36,.39,2.64,.94,3.83,.55,1.19,1.38,2.22,2.51,3.08,1.12,.87,2.63,1.4,4.53,1.6,2.09-.05,4.29-.83,6.58-2.34,2.29-1.51,4.56-3.31,6.81-5.39-.25,2.23,.11,4.09,1.08,5.57,.97,1.49,2.66,2.33,5.05,2.53Zm-13.39-9.66c-.8,.2-1.42,.25-1.87,.15s-.79-.32-1.01-.67c-.22-.35-.34-.77-.34-1.26s.05-1.02,.15-1.56c.1-.79,.27-1.6,.52-2.41s.5-1.5,.75-2.04c.85-1.93,2.01-4.09,3.48-6.46s3.1-4.61,4.9-6.69c1.8-2.08,3.67-3.8,5.61-5.16,1.94-1.36,3.84-2.02,5.69-1.97,.6,.05,1.07,.22,1.42,.52,.35,.3,.6,.68,.75,1.15,.15,.47,.22,.98,.22,1.52s-.02,1.06-.07,1.56c-.05,.2-.06,.4-.04,.59,.02,.2,.01,.37-.04,.52-.1,.3-.02,.57,.22,.82-.7-.4-1.38-.67-2.06-.82-.67-.15-1.26-.1-1.76,.15h0l.15,1.19c-.25,.99-.69,2.19-1.31,3.6-.62,1.41-1.31,2.86-2.06,4.35-.85,1.14-1.88,2.43-3.1,3.86-1.22,1.44-2.47,2.79-3.74,4.05s-2.48,2.36-3.63,3.31c-1.15,.94-2.09,1.51-2.84,1.71Zm56.1-33.65c.7-1.58,1.41-2.97,2.13-4.16s1.43-2.35,2.13-3.49c.7-1.14,1.38-2.25,2.06-3.34,.67-1.09,1.28-2.35,1.83-3.79,.1-.45-.09-1.18-.56-2.19-.47-1.02-1.07-2.03-1.8-3.05-.72-1.02-1.5-1.91-2.32-2.67-.82-.77-1.53-1.1-2.13-1h0l-1.5,1.56c-.3,1.24-.7,2.53-1.2,3.86s-1.02,2.65-1.57,3.94c-.55,1.29-1.03,2.53-1.46,3.71-.42,1.19-.76,2.28-1.01,3.27-.1,.54,.01,1.21,.34,2.01,.32,.79,.76,1.56,1.31,2.3s1.16,1.4,1.83,1.97c.67,.57,1.31,.93,1.91,1.08Zm-25.13,43.3c.9,0,1.82-.14,2.77-.41,.95-.27,1.85-.61,2.69-1s1.63-.83,2.36-1.3c.72-.47,1.33-.88,1.83-1.23,3.14-2.53,6.26-5.45,9.35-8.76s5.88-6.59,8.38-9.8h0l-.07,.15c.3-.35,.35-.78,.15-1.3-.2-.52-.51-.99-.94-1.41-.42-.42-.89-.72-1.38-.89s-.9-.11-1.2,.19h0l-1.35,1.78c-1.25,1.49-2.54,3.03-3.89,4.64-1.35,1.61-2.73,3.13-4.15,4.57-1.42,1.44-2.9,2.71-4.45,3.83-1.55,1.11-3.12,1.92-4.71,2.41h-.52c-.3,0-.3-.36,0-1.08,.3-.72,.79-1.67,1.46-2.86,.67-1.19,1.5-2.55,2.47-4.09s1.99-3.11,3.07-4.72c1.07-1.61,2.14-3.19,3.22-4.75,1.07-1.56,2.06-2.98,2.95-4.27,.35-.54,.75-1.14,1.2-1.78,.45-.64,.85-1.21,1.2-1.71,.35-.5,.62-.89,.82-1.19,.2-.3,.25-.4,.15-.3,.65-1.14,.82-2.32,.52-3.53-.3-1.21-.82-2.28-1.57-3.19-.75-.92-1.62-1.61-2.62-2.08-1-.47-1.87-.53-2.62-.19h0l-.97,.89c-.85,1.73-1.88,3.65-3.1,5.76-1.22,2.1-2.48,4.27-3.78,6.5-1.99,3.27-3.93,6.54-5.8,9.8-1.87,3.27-3.3,6.14-4.3,8.62h0l.07-.07c-.75,1.68-1.3,3.37-1.65,5.05-.35,2.18-.19,4,.49,5.46,.67,1.46,1.98,2.22,3.93,2.27Zm23.86,.45c1.94,.1,3.8-.19,5.57-.85,1.77-.67,3.37-1.65,4.79-2.93,1.42-1.29,2.61-2.86,3.55-4.72,.95-1.86,1.57-3.9,1.87-6.13h0l.52-4.46c.1-1.09,.2-2.17,.3-3.23s.25-2.12,.45-3.16c.35-1.88,.86-3.79,1.53-5.72,.67-1.93,1.66-3.76,2.95-5.5h0l1.2-1.49c.5-.64,.96-1.2,1.38-1.67,.42-.47,1.13-1.13,2.13-1.97h0l-.22,.07c1.05-.74,1.52-1.58,1.42-2.53-.1-.94-.49-1.84-1.16-2.71-.67-.87-1.51-1.66-2.51-2.38-1-.72-1.85-1.28-2.54-1.67-2.49,2.03-4.43,3.81-5.8,5.35-1.37,1.54-2.58,2.97-3.63,4.31-.35,.4-.67,.79-.97,1.19s-.65,.79-1.05,1.19c-1.9,2.18-3.73,4.43-5.5,6.76-1.77,2.33-3.5,4.68-5.2,7.06h0l-2.09,2.67c-1.65,1.19-3.07,2.77-4.26,4.75s-1.99,4.01-2.39,6.09c-.25,1.49-.25,2.9,0,4.23,.25,1.34,.76,2.53,1.53,3.57,.77,1.04,1.83,1.91,3.18,2.6,1.35,.69,2.99,1.11,4.94,1.26Zm2.32-6.98c-.6,.35-1.27,.47-2.02,.37-.7-.1-1.4-.33-2.09-.71-.7-.37-1.22-.95-1.57-1.75-.1-.35-.17-.71-.22-1.08-.05-.37-.05-.68,0-.93,.15-.64,.52-1.28,1.12-1.89,.6-.62,1.27-1.1,2.02-1.45,.75-.35,1.47-.46,2.17-.33,.7,.12,1.2,.58,1.5,1.37,.5-.45,.86-1.15,1.08-2.12,.22-.97,.36-1.98,.41-3.05s.02-2.08-.07-3.05c-.1-.97-.2-1.65-.3-2.04h0l.07-.07,3.14-4.16c-.1,.4-.2,.8-.3,1.23s-.17,.83-.22,1.23c-.25,1.19-.41,2.35-.49,3.49-.07,1.14-.16,2.23-.26,3.27-.1,1.98-.25,3.86-.45,5.65-.15,.89-.39,1.73-.71,2.53-.32,.79-.72,1.49-1.2,2.08s-1.01,1.06-1.61,1.41Zm-.22,38.1c5.64,0,10.57-1.26,14.81-3.79s8.2-6.07,11.89-10.62h0l3.82,3.34,2.77,2.53c.3,.2,.79,.25,1.46,.15,.67-.1,1.42-.32,2.24-.67,.82-.35,1.65-.76,2.47-1.23,.82-.47,1.51-.98,2.06-1.52,.55-.54,.91-1.09,1.08-1.63,.17-.54,.01-1.02-.49-1.41-.2-.15-.37-.32-.52-.52-.15-.2-.3-.37-.45-.52h0v.15c-1.4-1.24-2.79-2.44-4.19-3.6-1.4-1.16-2.84-2.27-4.34-3.31,1.45-2.23,2.88-4.58,4.3-7.06s2.88-5.1,4.38-7.87h0l16.01-29.34c.5-1.14,.54-2.29,.11-3.45-.42-1.16-1.08-2.19-1.98-3.08-.9-.89-1.88-1.55-2.95-1.97-1.07-.42-1.98-.46-2.73-.11-1.45,3.32-2.9,6.52-4.38,9.62-1.47,3.09-2.9,6-4.3,8.73h0l-1.27,1.63h.07c-1.1,1.54-2.24,3.11-3.44,4.72-1.2,1.61-2.44,3.12-3.74,4.53s-2.64,2.67-4.04,3.79c-1.4,1.11-2.82,1.92-4.26,2.41h-.67s.1-.2,.3-.59c.15-1.04,.61-2.44,1.38-4.2,.77-1.76,1.68-3.63,2.73-5.61s2.16-3.97,3.33-5.98c1.17-2.01,2.26-3.83,3.25-5.46h0l-.07,.07c.7-1.14,1.3-2.15,1.8-3.05s.87-1.56,1.12-2.01c.5-1.14,.56-2.3,.19-3.49s-.97-2.25-1.8-3.19c-.82-.94-1.75-1.63-2.77-2.08-1.02-.45-1.91-.5-2.66-.15h0l-.9,1.04c-.65,1.54-1.52,3.45-2.62,5.76s-2.27,4.72-3.52,7.24c-.75,1.58-1.52,3.18-2.32,4.79-.8,1.61-1.57,3.17-2.32,4.68-.75,1.51-1.42,2.97-2.02,4.38-.6,1.41-1.1,2.66-1.5,3.75-.2,.54-.36,1.14-.49,1.78-.12,.64-.24,1.24-.34,1.78-.4,2.48-.24,4.58,.49,6.31s2.16,2.65,4.3,2.75c.95,0,1.9-.14,2.84-.41,.95-.27,1.85-.61,2.69-1,.85-.4,1.62-.83,2.32-1.3,.7-.47,1.27-.9,1.72-1.3h0l1.35-1.11c-.95,1.63-1.88,3.23-2.81,4.79-.92,1.56-1.86,3.13-2.81,4.72-.95-.4-1.88-.76-2.81-1.08-.92-.32-1.88-.59-2.88-.82-1-.22-2.11-.4-3.33-.52-1.22-.12-2.61-.19-4.15-.19-2.79,0-5.54,.46-8.23,1.37-2.69,.92-5.15,2.2-7.37,3.86-2.22,1.66-4.09,3.61-5.61,5.87-1.52,2.25-2.51,4.69-2.95,7.32-.35,2.08-.21,3.84,.41,5.27s1.55,2.6,2.77,3.49c1.22,.89,2.67,1.55,4.34,1.97,1.67,.42,3.4,.63,5.2,.63Zm-.22-5.94c-.85,0-1.72-.09-2.62-.26-.9-.17-1.7-.47-2.39-.89-.7-.42-1.25-.99-1.65-1.71-.4-.72-.5-1.65-.3-2.79,.2-1.63,.91-3.05,2.13-4.23,1.22-1.19,2.67-2.18,4.34-2.97s3.48-1.37,5.42-1.75c1.94-.37,3.74-.56,5.39-.56,3.39,.05,6.36,.64,8.9,1.78-1.5,1.98-3.03,3.79-4.6,5.42-1.57,1.63-3.15,3.05-4.75,4.23-1.6,1.19-3.22,2.1-4.86,2.75-1.65,.64-3.32,.97-5.01,.97Z"/>
    </g>
    <g>
      <path id="path-3" d="M432.2,1161.16c6.99,0,12.17-1.69,15.53-5.07,3.37-3.38,5.05-8.75,5.05-16.09h0v-27.36h-12.24v25.67c0,1.38-.05,2.79-.16,4.23-.1,1.44-.43,2.74-.97,3.91s-1.37,2.12-2.48,2.85-2.69,1.1-4.74,1.1-3.64-.37-4.77-1.1c-1.13-.73-1.96-1.68-2.48-2.85-.52-1.17-.84-2.47-.94-3.91-.1-1.44-.16-2.85-.16-4.23h0v-25.67h-12.3v27.36c0,7.35,1.69,12.71,5.08,16.09,3.39,3.38,8.58,5.07,15.57,5.07Zm42.81-1.31v-47.21h-12.3v47.21h12.3Z"/>
      <path id="path-3-2" data-name="path-3" class="cls-40" d="M432.2,1161.16c6.99,0,12.17-1.69,15.53-5.07,3.37-3.38,5.05-8.75,5.05-16.09h0v-27.36h-12.24v25.67c0,1.38-.05,2.79-.16,4.23-.1,1.44-.43,2.74-.97,3.91s-1.37,2.12-2.48,2.85-2.69,1.1-4.74,1.1-3.64-.37-4.77-1.1c-1.13-.73-1.96-1.68-2.48-2.85-.52-1.17-.84-2.47-.94-3.91-.1-1.44-.16-2.85-.16-4.23h0v-25.67h-12.3v27.36c0,7.35,1.69,12.71,5.08,16.09,3.39,3.38,8.58,5.07,15.57,5.07Zm42.81-1.31v-47.21h-12.3v47.21h12.3Z"/>
    </g>
  </g>
  <g>
    <path class="cls-25" d="M646.82,845.88c5.85,0,8.46,3.8,9.33,7.2l8.22-3c-1.58-6.17-7.27-12.65-17.63-12.65-11.07,0-19.69,8.54-19.69,20.4s8.62,20.48,19.92,20.48c10.12,0,15.89-6.56,17.71-12.57l-8.06-2.93c-.87,2.93-3.64,7.12-9.65,7.12s-10.75-4.35-10.75-12.1,4.98-11.94,10.59-11.94Zm32.02,8.62c.16-4.9,2.93-8.7,7.99-8.7,5.77,0,7.91,3.8,7.91,8.54v22.77h9.17v-24.35c0-8.46-4.59-15.26-14.07-15.26-4.03,0-8.38,1.42-10.99,4.82v-22.45h-9.17v57.24h9.17v-22.61h0Zm30.7,12.18c0,6.09,4.98,11.62,13.05,11.62,6.25,0,10.04-3.16,11.86-6.09,0,3.08,.32,4.66,.4,4.9h8.54c-.08-.4-.47-2.69-.47-6.17v-19.13c0-7.67-4.51-14.39-16.37-14.39-9.49,0-15.5,5.93-16.21,12.57l8.38,1.9c.4-3.87,3.08-6.96,7.91-6.96,5.06,0,7.27,2.61,7.27,5.85,0,1.34-.63,2.45-2.85,2.77l-9.88,1.5c-6.56,.95-11.62,4.74-11.62,11.62h0Zm14.79,4.43c-3.64,0-5.61-2.37-5.61-4.98,0-3.16,2.29-4.74,5.14-5.22l10.04-1.5v1.74c0,7.51-4.43,9.96-9.57,9.96h0Zm62.56-32.5h-12.18l-14.79,15.58v-34.31h-9.09v57.24h9.09v-10.75l4.74-4.98,11.31,15.73h11.23l-16.13-22.22,15.81-16.29h0Zm26.32-.24c-.4-.08-1.34-.24-2.45-.24-5.06,0-9.33,2.45-11.15,6.64v-6.17h-8.93v38.51h9.17v-18.34c0-7.2,3.24-11.31,10.36-11.31,.95,0,1.98,.08,3,.24v-9.33Zm2.2,28.31c0,6.09,4.98,11.62,13.05,11.62,6.25,0,10.04-3.16,11.86-6.09,0,3.08,.32,4.66,.4,4.9h8.54c-.08-.4-.47-2.69-.47-6.17v-19.13c0-7.67-4.51-14.39-16.37-14.39-9.49,0-15.5,5.93-16.21,12.57l8.38,1.9c.4-3.87,3.08-6.96,7.91-6.96,5.06,0,7.27,2.61,7.27,5.85,0,1.34-.63,2.45-2.85,2.77l-9.88,1.5c-6.56,.95-11.62,4.74-11.62,11.62h0Zm14.79,4.43c-3.64,0-5.61-2.37-5.61-4.98,0-3.16,2.29-4.74,5.14-5.22l10.04-1.5v1.74c0,7.51-4.43,9.96-9.57,9.96Z"/>
    <g>
      <path class="cls-52" d="M738.15,724.57h0c23.58,0,42.69,19.11,42.69,42.69h0c0,23.58-19.11,42.69-42.69,42.69h0c-23.58,0-42.69-19.11-42.69-42.69h0c0-23.58,19.11-42.69,42.69-42.69Z"/>
      <path class="cls-3" d="M718.57,769.08l29.1-28.9c.54-.54,1.42,.12,1.05,.79l-10.83,19.85c-.24,.44,.08,.98,.58,.98h18.72c.6,0,.89,.74,.45,1.15l-32.8,30.61c-.59,.55-1.46-.22-.99-.88l15.53-21.42c.32-.44,0-1.05-.54-1.05h-19.8c-.59,0-.89-.72-.47-1.14Z"/>
    </g>
  </g>
</svg>